<svg fill="none" height="33" viewBox="0 0 45 33" width="45" xmlns="http://www.w3.org/2000/svg"><circle cx="28.5" cy="16.5" fill="#35736e" fill-opacity=".2" r="16.5"/><g stroke="#000" stroke-linecap="round" stroke-linejoin="round" stroke-width="2"><path d="m14.5 29c7.4558 0 13.5-6.0442 13.5-13.5 0-7.45584-6.0442-13.5-13.5-13.5-7.45584 0-13.5 6.04416-13.5 13.5 0 7.4558 6.04416 13.5 13.5 13.5z"/><path d="m14.5 20.9c2.9823 0 5.4-2.4177 5.4-5.4s-2.4177-5.4-5.4-5.4c-2.9824 0-5.40002 2.4177-5.40002 5.4s2.41762 5.4 5.40002 5.4z"/><path d="m18.3204 19.3204 5.724 5.724"/><path d="m4.95557 25.0444 5.72403-5.724"/><path d="m18.3204 11.6796 5.724-5.72403"/><path d="m18.3204 11.6795 4.7655-4.76547"/><path d="m4.95557 5.95557 5.72403 5.72403"/></g></svg>