<svg fill="none" height="38" viewBox="0 0 45 38" width="45" xmlns="http://www.w3.org/2000/svg"><circle cx="28.5" cy="21.5" fill="#35736e" fill-opacity=".2" r="16.5"/><g stroke="#000" stroke-linecap="round" stroke-linejoin="round" stroke-width="2.66667"><path d="m6 2-4 5.33333v18.66667c0 .7072.28095 1.3855.78105 1.8856s1.17837.7811 1.88562.7811h18.66663c.7073 0 1.3856-.281 1.8857-.7811.5-.5001.781-1.1784.781-1.8856v-18.66667l-4-5.33333z"/><path d="m19.3333 12.6666c0 1.4145-.5619 2.771-1.5621 3.7712s-2.3567 1.5621-3.7712 1.5621-2.771-.5619-3.7712-1.5621c-1.00023-1.0002-1.56213-2.3567-1.56213-3.7712"/><path d="m2 7.33325h24"/></g></svg>