<svg fill="none" height="36" viewBox="0 0 46 36" width="46" xmlns="http://www.w3.org/2000/svg"><circle cx="29.5" cy="19.5" fill="#35736e" fill-opacity=".2" r="16.5"/><g stroke="#000" stroke-linecap="round" stroke-linejoin="round" stroke-width="2.81818"><path d="m26.6591 27c1.9455 0 3.5227-1.5772 3.5227-3.5227 0-1.9456-1.5772-3.5228-3.5227-3.5228-1.9456 0-3.5227 1.5772-3.5227 3.5228 0 1.9455 1.5771 3.5227 3.5227 3.5227z"/><path d="m8.3409 27c1.9456 0 3.5227-1.5772 3.5227-3.5227 0-1.9456-1.5771-3.5228-3.5227-3.5228-1.94555 0-3.52272 1.5772-3.52272 3.5228 0 1.9455 1.57717 3.5227 3.52272 3.5227z"/><path d="m23.1364 8.68182h5.6363l4.2273 4.22728v7.0455h-9.8636z"/><path d="m23.1364 1.63635h-21.1364v18.31815h21.1364z"/></g></svg>