<svg fill="none" height="176" viewBox="0 0 262 176" width="262" xmlns="http://www.w3.org/2000/svg"><g fill="#35736e"><ellipse cx="4.5" cy="4" opacity=".3" rx="4.5" ry="4"/><ellipse cx="40.5" cy="4" opacity=".3" rx="4.5" ry="4"/><circle cx="76" cy="4" opacity=".3" r="4"/><circle cx="112" cy="4" opacity=".3" r="4"/><circle cx="148" cy="4" opacity=".3" r="4"/><circle cx="184" cy="4" opacity=".3" r="4"/><circle cx="220" cy="4" opacity=".3" r="4"/><circle cx="256" cy="4" opacity=".3" r="4"/><ellipse cx="4.5" cy="28" opacity=".3" rx="4.5" ry="4"/><ellipse cx="40.5" cy="28" opacity=".3" rx="4.5" ry="4"/><circle cx="76" cy="28" opacity=".3" r="4"/><circle cx="112" cy="28" opacity=".3" r="4"/><circle cx="148" cy="28" opacity=".3" r="4"/><circle cx="184" cy="28" opacity=".3" r="4"/><circle cx="220" cy="28" opacity=".3" r="4"/><circle cx="256" cy="28" opacity=".3" r="4"/><ellipse cx="4.5" cy="52" opacity=".3" rx="4.5" ry="4"/><ellipse cx="40.5" cy="52" opacity=".3" rx="4.5" ry="4"/><circle cx="76" cy="52" opacity=".3" r="4"/><circle cx="112" cy="52" opacity=".3" r="4"/><circle cx="148" cy="52" opacity=".3" r="4"/><circle cx="184" cy="52" opacity=".3" r="4"/><circle cx="220" cy="52" opacity=".3" r="4"/><circle cx="256" cy="52" opacity=".3" r="4"/><ellipse cx="4.5" cy="76" opacity=".3" rx="4.5" ry="4"/><ellipse cx="40.5" cy="76" opacity=".3" rx="4.5" ry="4"/><circle cx="76" cy="76" opacity=".3" r="4"/><circle cx="112" cy="76" opacity=".3" r="4"/><circle cx="148" cy="76" opacity=".3" r="4"/><circle cx="184" cy="76" opacity=".3" r="4"/><circle cx="220" cy="76" opacity=".3" r="4"/><circle cx="256" cy="76" opacity=".3" r="4"/><ellipse cx="4.5" cy="100" opacity=".3" rx="4.5" ry="4"/><ellipse cx="40.5" cy="100" opacity=".3" rx="4.5" ry="4"/><circle cx="76" cy="100" opacity=".3" r="4"/><circle cx="112" cy="100" opacity=".3" r="4"/><circle cx="148" cy="100" opacity=".3" r="4"/><circle cx="184" cy="100" opacity=".3" r="4"/><circle cx="220" cy="100" opacity=".3" r="4"/><circle cx="256" cy="100" opacity=".3" r="4"/><ellipse cx="4.5" cy="124" opacity=".3" rx="4.5" ry="4"/><ellipse cx="40.5" cy="124" opacity=".3" rx="4.5" ry="4"/><circle cx="76" cy="124" opacity=".3" r="4"/><circle cx="112" cy="124" opacity=".3" r="4"/><circle cx="148" cy="124" opacity=".3" r="4"/><circle cx="184" cy="124" opacity=".3" r="4"/><circle cx="220" cy="124" opacity=".3" r="4"/><circle cx="256" cy="124" opacity=".3" r="4"/><ellipse cx="4.5" cy="148" opacity=".3" rx="4.5" ry="4"/><ellipse cx="41.5" cy="148" opacity=".3" rx="4.5" ry="4"/><circle cx="78" cy="148" opacity=".3" r="4"/><circle cx="114" cy="148" opacity=".3" r="4"/><circle cx="150" cy="148" opacity=".3" r="4"/><circle cx="186" cy="148" opacity=".3" r="4"/><circle cx="222" cy="148" opacity=".3" r="4"/><circle cx="258" cy="148" opacity=".3" r="4"/><ellipse cx="4.5" cy="172" opacity=".3" rx="4.5" ry="4"/><ellipse cx="41.5" cy="172" opacity=".3" rx="4.5" ry="4"/><circle cx="78" cy="172" opacity=".3" r="4"/><circle cx="114" cy="172" opacity=".3" r="4"/><circle cx="150" cy="172" opacity=".3" r="4"/><circle cx="186" cy="172" opacity=".3" r="4"/><circle cx="222" cy="172" opacity=".3" r="4"/><circle cx="258" cy="172" opacity=".3" r="4"/></g></svg>